<?xml version="1.0" encoding="UTF-8" standalone="no"?>
<svg
   xmlns:dc="http://purl.org/dc/elements/1.1/"
   xmlns:cc="http://creativecommons.org/ns#"
   xmlns:rdf="http://www.w3.org/1999/02/22-rdf-syntax-ns#"
   xmlns:svg="http://www.w3.org/2000/svg"
   xmlns="http://www.w3.org/2000/svg"
   xmlns:sodipodi="http://sodipodi.sourceforge.net/DTD/sodipodi-0.dtd"
   xmlns:inkscape="http://www.inkscape.org/namespaces/inkscape"
   inkscape:version="1.0 (4035a4fb49, 2020-05-01)"
   sodipodi:docname="tadah_science_logo.svg"
   id="svg14"
   xml:space="preserve"
   enable-background="new 0 0 100 100"
   viewBox="0 0 100 100"
   y="0px"
   x="0px"
   version="1.1"
   fill="#000000"
   width="100px"
   height="100px"><metadata
     id="metadata20"><rdf:RDF><cc:Work
         rdf:about=""><dc:format>image/svg+xml</dc:format><dc:type
           rdf:resource="http://purl.org/dc/dcmitype/StillImage" /><dc:title></dc:title></cc:Work></rdf:RDF></metadata><defs
     id="defs18" /><sodipodi:namedview
     inkscape:current-layer="svg14"
     inkscape:window-maximized="0"
     inkscape:window-y="173"
     inkscape:window-x="2110"
     inkscape:cy="41.776842"
     inkscape:cx="25.407115"
     inkscape:zoom="4.235"
     inkscape:pagecheckerboard="true"
     showgrid="false"
     id="namedview16"
     inkscape:window-height="760"
     inkscape:window-width="1464"
     inkscape:pageshadow="2"
     inkscape:pageopacity="0"
     guidetolerance="10"
     gridtolerance="10"
     objecttolerance="10"
     borderopacity="1"
     bordercolor="#666666"
     pagecolor="#311dff" /><path
     style="stroke:none;stroke-opacity:1;fill:#ffffff;fill-opacity:1"
     id="path2"
     d="m 74.885207,89.465935 c -0.02,-0.062 -0.043,-0.123 -0.07,-0.183 l -15.583,-33.797 v -12.153 c 0.994,-0.197 1.745,-1.072 1.745,-2.124 v 0 c 0,-1.196 -0.97,-2.167 -2.167,-2.167 h -17.667 c -1.197,0 -2.167,0.97 -2.167,2.167 v 0 c 0,1.196 0.97,2.167 2.167,2.167 h 0.089 v 12.111 l -15.583,33.796 c -0.027,0.06 -0.051,0.12 -0.07,0.183 -0.558,1.795 -0.241,3.783 0.846,5.317 l 0.217,0.306 c 1.137,1.602 2.989,2.56 4.954,2.56 h 37.273 c 1.965,0 3.817,-0.957 4.954,-2.56 l 0.217,-0.307 c 1.087,-1.533 1.403,-3.521 0.845,-5.316 z m -30.791,-33.023 c 0.091,-0.197 0.138,-0.411 0.138,-0.627 v -12.44 h 12 v 12.44 c 0,0.217 0.047,0.431 0.138,0.628 l 7.181,15.574 c -7.902,1.316 -12.927,4.667 -18.818,4.798 -2.636,0.059 -6.364,-0.62 -9.428,-1.308 z" /><path
     style="stroke:none;stroke-opacity:1;fill:#ffffff;fill-opacity:1"
     d="m 44.731431,29.974774 3.591621,1.218887 -0.05406,3.817573 c -0.0051,0.375042 0.231446,0.710385 0.586216,0.831177 0.09207,0.03125 0.185833,0.04604 0.278748,0.04604 0.267765,0 0.526241,-0.124592 0.693489,-0.347591 l 2.284886,-3.061577 3.618652,1.227756 c 0.353081,0.119946 0.746704,-0.0017 0.971393,-0.301975 0.223843,-0.300289 0.228909,-0.711231 0.01267,-1.01701 l -2.208019,-3.115635 2.268837,-3.038772 c 0.223842,-0.300285 0.228912,-0.710804 0.01267,-1.016583 -0.216244,-0.306201 -0.606487,-0.438396 -0.962948,-0.326896 l -3.625408,1.125972 -2.197884,-3.102966 c -0.217083,-0.305355 -0.60564,-0.437973 -0.962944,-0.32605 -0.357303,0.111077 -0.603107,0.439659 -0.608177,0.814278 l -0.05321,3.802372 -3.625408,1.125973 c -0.357304,0.111076 -0.603107,0.440082 -0.608177,0.814701 -0.0051,0.375042 0.232292,0.709961 0.587059,0.83033 z m 4.759827,-1.305046 c 0.357303,-0.111077 0.603107,-0.43966 0.608177,-0.814282 l 0.02449,-1.777225 1.027145,1.450332 c 0.21624,0.305355 0.604798,0.435436 0.962944,0.32605 l 1.682621,-0.522861 -1.052482,1.409786 c -0.223843,0.300285 -0.228909,0.711227 -0.01267,1.017429 l 1.029675,1.453285 -1.687687,-0.572696 c -0.354771,-0.122483 -0.746708,8.43e-4 -0.971394,0.301551 l -1.065998,1.427948 0.02534,-1.780181 c 0.0051,-0.375042 -0.231445,-0.710808 -0.587063,-0.831177 l -1.66572,-0.565518 z"
     id="path4-5" /><path
     style="stroke:none;stroke-opacity:1;fill:#ffffff;fill-opacity:1"
     d="m 60.077752,20.564932 c -0.212017,0.308733 -0.201881,0.71883 0.02619,1.016161 l 2.385403,3.110569 -2.239274,3.250366 c -0.21286,0.308735 -0.202724,0.719254 0.02534,1.017006 0.228066,0.297753 0.622536,0.415165 0.975617,0.289307 l 3.722546,-1.317715 2.403144,3.133374 c 0.167248,0.217929 0.423188,0.338722 0.68673,0.338722 0.09629,0 0.194278,-0.01605 0.288887,-0.04984 0.353077,-0.125016 0.586212,-0.463738 0.576076,-0.838356 l -0.10643,-3.945546 3.695515,-1.307579 c 0.353081,-0.125015 0.585373,-0.463314 0.57608,-0.837932 -0.01014,-0.374619 -0.260162,-0.700249 -0.619156,-0.807102 l -3.762249,-1.11541 -0.105587,-3.929076 c -0.01013,-0.374197 -0.260162,-0.699825 -0.619156,-0.806255 -0.358993,-0.106008 -0.745861,0.03041 -0.957878,0.33872 l -2.230827,3.236851 -3.762245,-1.115835 c -0.358994,-0.105587 -0.745861,0.03041 -0.958725,0.339565 z m 4.831627,2.61347 c 0.358146,0.105587 0.745861,-0.03041 0.957878,-0.338722 l 1.081199,-1.568588 0.05068,1.90393 c 0.01013,0.374199 0.260166,0.699826 0.619159,0.806256 l 1.811859,0.537223 -1.778919,0.629296 c -0.353077,0.125435 -0.586212,0.463733 -0.576076,0.838775 l 0.05152,1.908997 -1.162293,-1.516216 c -0.167247,-0.21793 -0.423191,-0.338723 -0.686733,-0.338723 -0.09629,0 -0.194279,0.01605 -0.288883,0.04942 l -1.800877,0.637741 1.08289,-1.572391 c 0.212864,-0.308731 0.202728,-0.719674 -0.02534,-1.017006 l -1.148777,-1.497635 z"
     id="path6-6" /><path
     style="stroke:none;stroke-opacity:1;fill:#ffffff;fill-opacity:1"
     d="m 49.634011,12.54925 4.624676,1.685156 -0.17992,4.951147 c -0.01352,0.37462 0.215397,0.715452 0.567631,0.843845 0.09714,0.03548 0.196815,0.05237 0.296485,0.05237 0.26101,0 0.514416,-0.118255 0.681668,-0.332384 l 3.051861,-3.904155 4.657619,1.696981 c 0.353081,0.129238 0.747551,0.0152 0.978149,-0.280014 0.230603,-0.295643 0.244961,-0.706162 0.03548,-1.016584 L 61.574547,12.139998 64.606136,8.263716 C 64.836739,7.968499 64.851097,7.557978 64.641616,7.247555 64.432979,6.936709 64.044421,6.79818 63.686271,6.899121 L 58.950942,8.254847 56.189651,4.166128 C 55.98017,3.855705 55.597526,3.717175 55.234309,3.818538 c -0.35984,0.103052 -0.6124,0.425723 -0.625915,0.799921 l -0.17992,4.930875 -4.736176,1.355728 c -0.359836,0.103052 -0.613243,0.426567 -0.625912,0.801187 -0.01352,0.374197 0.21624,0.714608 0.567631,0.843001 z m 5.87397,-1.509461 c 0.359841,-0.103052 0.6124,-0.426145 0.625916,-0.799921 l 0.10643,-2.907421 1.627716,2.410744 c 0.210331,0.310423 0.598041,0.451063 0.955345,0.34759 l 2.779873,-0.795699 -1.779759,2.27475 c -0.230602,0.295641 -0.24496,0.70616 -0.03548,1.017006 l 1.632782,2.41708 -2.74186,-0.999268 c -0.353927,-0.129659 -0.747551,-0.01563 -0.978153,0.280014 l -1.796654,2.298401 0.105587,-2.914602 c 0.01352,-0.37462 -0.215397,-0.715452 -0.56763,-0.843845 l -2.71399,-0.98913 z"
     id="path8-2" /><path
     style="stroke:none;stroke-opacity:1;fill:#ffffff;fill-opacity:1"
     id="path6-6-9"
     d="m 67.497331,4.8453907 c -0.212017,0.308733 -0.201881,0.71883 0.02619,1.016161 l 2.385403,3.1105693 -2.239274,3.250366 c -0.21286,0.308735 -0.202724,0.719254 0.02534,1.017006 0.228066,0.297753 0.622536,0.415165 0.975617,0.289307 l 3.722546,-1.317715 2.403144,3.133374 c 0.167248,0.217929 0.423188,0.338722 0.68673,0.338722 0.09629,0 0.194278,-0.01605 0.288887,-0.04984 0.353077,-0.125016 0.586212,-0.463738 0.576076,-0.838356 L 76.24156,10.849439 79.937074,9.54186 C 80.290155,9.416845 80.522447,9.078546 80.513154,8.703928 80.503014,8.329309 80.252992,8.003679 79.893998,7.8968257 l -3.762248,-1.11541 -0.105587,-3.929076 c -0.01013,-0.374197 -0.260162,-0.699825 -0.619156,-0.806255 -0.358993,-0.106008 -0.745861,0.03041 -0.957878,0.33872 l -2.230827,3.236851 -3.762245,-1.115835 c -0.358994,-0.105587 -0.745861,0.03041 -0.958725,0.339565 z m 4.831627,2.61347 c 0.358146,0.105587 0.745861,-0.03041 0.957878,-0.338722 l 1.081199,-1.568588 0.05068,1.90393 c 0.01013,0.374199 0.260166,0.6998263 0.619159,0.8062563 l 1.811859,0.537223 -1.778919,0.629296 c -0.353077,0.125435 -0.586212,0.463733 -0.576076,0.838775 l 0.05152,1.908997 -1.162293,-1.516216 c -0.167247,-0.21793 -0.423191,-0.338723 -0.686733,-0.338723 -0.09629,0 -0.194279,0.01605 -0.288883,0.04942 l -1.800877,0.637741 1.08289,-1.572391 C 71.903226,9.127128 71.89309,8.716185 71.665022,8.418853 L 70.516245,6.9212177 Z" /></svg>
